# xmcd
#
# Track frame offsets:
#	150
#	21217
#	40840
#	57855
#	69900
#	86875
#	104152
#	121402
#	138737
#	155987
#
# Disc length: 2290 seconds
#
# Revision: 1
# Processed by: cddbd v1.5.1PL0 Copyright (c) Steve Scherf et al.
# Submitted via: EasyCDDAExtractor 7.0.9.1
#
DISCID=9308f00a
DTITLE=Ray Charles - Home Style
DYEAR=1990
DGENRE=Blues
TTITLE0=I Had It All
TTITLE1=3/4 Time
TTITLE2=Woman Sensuous Woman
TTITLE3=Beaucoup Love
TTITLE4=The Pages Of My Mind
TTITLE5=Dixie Moon
TTITLE6=Do I Ever Cross Your Mind
TTITLE7=Born To Love Me
TTITLE8=Slip Away
TTITLE9=Let Your Love Flow
EXTD=
EXTT0=
EXTT1=
EXTT2=
EXTT3=
EXTT4=
EXTT5=
EXTT6=
EXTT7=
EXTT8=
EXTT9=
PLAYORDER=
